<svg width="0" height="0" class="hidden">
  <symbol version="1.0" xmlns="http://www.w3.org/2000/svg" viewBox="0 0 512 512" id="wordpress">
    <path d="M232.1 1c-31.3 3.1-61 11.6-90 26.1-50.3 24.9-90 64.6-115 115-12.6 25.2-19.8 48-24.3 76.4-3.2 20.1-3.2 54.9 0 75 4.5 28.4 11.7 51.2 24.3 76.4 12.9 26.1 28.1 47 49.1 67.8 21.1 20.9 40.4 34.6 67.3 47.8 25.5 12.6 48.4 19.7 77.5 24.2 16.1 2.4 53.9 2.4 70 0 29.1-4.5 52-11.6 77.5-24.2 26.9-13.2 46.2-26.9 67.3-47.8 39.8-39.3 64.5-87.9 73.4-144.2 3.2-20.1 3.2-54.9 0-75-4.5-28.4-11.7-51.2-24.3-76.4-12.9-26.1-28.1-47-49.1-67.8-21.1-20.9-40.4-34.6-67.3-47.8-25.2-12.4-48.6-19.7-76.5-24C279.4.6 245.2-.2 232.1 1zm52.6 32.5c77.7 10 145.8 61.2 176.9 133.1 9 20.8 14.8 42.4 17.4 65.3 1.8 15.2.8 47.5-1.9 62.3-11.9 65.8-50.3 121.1-107.5 155.1-26.7 15.8-57.7 26.2-89.5 29.8-15.3 1.7-47.5.7-62.3-2C118.8 459.2 45.1 380.9 33 281c-1.3-10.9-1.3-39.1 0-50 9.8-80.9 60.7-149.4 134.6-181.1 18.9-8.1 38.4-13.5 59.4-16.4 13.3-1.8 43.3-1.8 57.7 0z"></path>
    <path d="M238.2 55.1c-40.8 3.5-80.8 20.4-113.3 47.7-12.2 10.2-27.9 27.8-35.5 39.6l-1.8 2.9 26.4-.6c14.6-.4 30.4-1 35.2-1.3 8.3-.7 8.7-.6 11.2 1.9 3.3 3.3 3.4 7.7.3 11.3-2.1 2.5-3.1 2.7-15 3.7-11.2.9-12.8 1.3-12.5 2.8.8 4.5 72.4 215.7 72.9 215.1.4-.4 10.4-30 22.3-65.7l21.6-65-15.5-42.5c-8.5-23.3-15.9-42.7-16.3-43.1-.4-.3-5.9-1.1-12.2-1.7-10.5-1-11.7-1.3-13.7-3.7-3.1-3.5-3-7.9.3-11.2 2.5-2.5 2.9-2.6 11.2-1.9 21 1.5 61.9 1.9 82.7.6 21.1-1.2 21.8-1.2 24.4.7 2.7 2.1 3.7 5.8 2.7 9.8-.9 3.6-6 5.3-18.3 6-6.2.4-11.3.9-11.3 1 0 .8 72.1 214.9 72.5 215.3.6.6-.2 3 11.9-37.3 5.8-19.3 12.4-41.1 14.6-48.5 11.1-36.4 11.7-56.9 2.3-80.5-3.4-8.8-5.9-13.5-17.7-33.8-9-15.4-11-21.3-11-33.2-.1-8.8.2-10.7 2.6-15.7 5.2-11.2 14.2-18.1 26.2-20.3l5.9-1.1-6.9-5.8c-22.2-18.6-51.2-33.1-80.9-40.5-18.6-4.7-45.7-6.7-65.3-5zm195.6 121.1c.4 17.3-.9 29.2-4.9 45.3-1.1 4.4-17.5 52.8-36.5 107.6C373.5 383.9 358 429 358 429.4c0 1 10.6-5.9 20.8-13.6 22.3-16.9 42.2-40.4 55.7-66 29.3-55.8 30.8-123.3 3.9-179.8l-4.9-10.2.3 16.4zm-366.2 8c-10.5 27.5-14.9 56.7-12.7 85.5 1.4 18.5 4.2 32.5 9.7 49.3 14.2 43.3 42.4 80.1 80.5 105.3 10.7 7 21.8 13.2 22.3 12.5.4-.4-94.8-260.5-95.5-261.3-.4-.3-2.3 3.6-4.3 8.7z"></path>
    <path d="M229.6 360.7c-16.4 47.7-30.1 87.3-30.3 87.8-.2.6 3.6 2 8.9 3.3 27.9 6.4 50.1 7.5 77.3 3.6 15.9-2.3 37.3-8.1 36.8-10-.4-1.3-61.2-167.6-62.1-169.7-.5-1.3-9.7 24.3-30.6 85z"></path>
  </symbol>
  <symbol version="1.0" xmlns="http://www.w3.org/2000/svg" viewBox="0 0 512 512" id="apple">
    <path d="M338.5 1.5c-35.3 7.8-69.2 40.7-79.9 77.9-2.7 9.2-4.2 23.3-3.2 29l.7 3.6h7.3c23.9 0 51.4-16.2 67.4-39.7C343.2 54 351 29.4 351 8.4V0l-3.2.1c-1.8 0-6 .7-9.3 1.4zm-8 117.2c-13.4 1.7-25.2 5.2-54.9 16.3-16.4 6.1-16.7 6.1-34.6-.2-41.3-14.3-50.3-16.4-66-15.4-31.5 2.1-63.4 16.9-86.6 40-34.8 34.9-49.3 91.9-38.9 153.1 10.9 64.4 42.5 133 77.9 169.3 15.3 15.7 28.6 24.2 44 28.2 16.3 4.1 29.5 2.2 63.1-9.3 23.3-7.9 24.3-8.1 33-8.1 10.9.1 17.7 1.8 35.4 8.8 20.4 8.1 24.4 9 40.1 9 12.8 0 14-.1 21.9-3.2 12.3-4.7 22.1-11.3 34.4-23.1 22.5-21.8 44.5-56.5 60-94.6 6.2-15.2 7-18.1 6.3-22-1-5.3-4.9-9-18.7-18.1-28.4-18.7-40.7-37.6-43.9-67.9-2.5-23 3.2-44.6 16.4-62.1 6-8 15.9-17.3 28.7-26.9 5.7-4.3 10.6-7.9 10.7-8.1.2-.1-2.9-5.1-6.9-11.1-20.5-30.3-50-48.2-88.4-53.8-9.2-1.3-25.8-1.7-33-.8z"></path>
  </symbol>
  <symbol version="1.0" xmlns="http://www.w3.org/2000/svg" viewBox="0 0 512 512" id="clock">
    <path d="M237 .6c-1.9.2-7.8.9-13 1.5-79.1 9-152.2 58.6-192.4 130.5C17 158.8 6.4 191.4 1.9 224c-1.8 12.5-1.8 51.5 0 64C12.4 364.2 53 428.9 116.5 470.6c60.9 40 137.7 51.7 209 31.7 92.9-26 164.6-104.3 181.9-198.7 15.6-84.5-10.3-168.2-70.5-228.5C397 35.3 349 11.2 292 2.5 282 1 244.8-.3 237 .6zm54 16.9c5.8.9 16.6 3.1 24 4.9 84.8 21.1 153.1 89.2 174.5 174.1 5.5 21.9 6.9 34.2 6.9 59.5 0 25.3-1.4 37.6-6.9 59.5-21.3 84.6-89.4 152.7-174 174-21.9 5.5-34.2 6.9-59.5 6.9-25.5 0-36.8-1.3-59.3-6.9-84.9-21.3-152.8-89.2-174.2-174-5.5-21.9-6.9-34.2-6.9-59.5 0-25.3 1.4-37.6 6.9-59.5C41.7 120.5 98.9 57 173.2 29.6c17.4-6.4 43.3-12.1 63.8-14 9.3-.8 43.9.4 54 1.9z"></path>
    <path d="M240 35.6c-25.6 2.2-51.9 8.8-73.5 18.4-7 3.2-8.5 4.7-8.5 9 0 7.5 5.6 8.9 16.4 4.1 16.3-7.4 42.6-14.2 59.6-15.6 4.1-.3 9-.8 10.8-1.1l3.2-.5.1 12.8c0 14.8 1.2 19.3 5.2 20.7 4.2 1.5 8-.3 9.4-4.4.7-2 1.2-9.2 1.2-16.3l.1-12.8 3.3.5c1.7.3 6.8.8 11.1 1.2 37.7 3 82.4 22.6 112.9 49.5l4.9 4.2-10.1 10.1c-5.5 5.6-10.3 11.3-10.6 12.7-.9 3.8 3.1 8.2 7.4 8.2 2.8 0 4.7-1.5 13.5-10.2l10.3-10.2 3.4 3.8c29 32.1 49 80 51.1 122.3l.3 6.5-15.3.5c-13.7.4-15.5.7-16.8 2.4-1.6 2.3-1.8 6-.4 8.6 1.6 3 6.6 4 20.2 4h12.9l-.5 3.2c-.3 1.8-.8 6.9-1.2 11.2-2.9 36.3-21.8 80.6-46.9 110l-6.7 7.8-10.2-10c-11.9-11.8-14.1-12.8-18.7-8.3-4.5 4.6-3.5 6.8 8.3 18.7l10 10.2-7.8 6.6c-4.3 3.7-12.4 9.8-18.1 13.7-11.1 7.6-12.8 10.1-10.2 14.8 2.3 4.2 6.3 4.9 11.2 2.3 14.1-7.6 37.2-27.1 51.2-43.4 28.3-32.9 45.5-70.4 52.1-113.9 2.4-15.7 2.4-46.3.1-61.9-7.6-49.5-28.9-91.5-63.8-126.2-33.5-33.1-75.8-54.2-122.9-61.3-10.3-1.5-39.2-2.7-48-1.9zM131.5 73.8C89.3 101.2 54.8 150.6 42 201.9c-4.9 19.5-6.4 32.5-6.4 54.1 0 21.1 1.5 34.2 6.1 53 19.1 78.5 81.5 141.2 160.2 161 19.1 4.8 32.5 6.4 53.6 6.4 29.9.1 52.8-4 79.4-14.2 7.9-3 9.5-4 10.6-6.6 1.7-4 .2-8.1-3.5-9.6-2.6-1.1-4.5-.6-17.6 3.9-15.4 5.4-33.8 9.6-46.4 10.6-4.1.3-9 .8-10.7 1.1l-3.3.5-.1-12.8c0-14.8-1.2-19.3-5.1-20.7-4.3-1.5-8.1.3-9.5 4.4-.7 2-1.2 9.1-1.2 16.2L248 462l-4.2-.5c-18.9-2-25.6-3-35.7-5.5-20.6-5.1-42.2-13.9-58.6-24-8.3-5.1-23.7-16.4-29.5-21.6l-4.1-3.7 10.2-10.3c8.7-8.8 10.2-10.7 10.2-13.5 0-4.3-4.4-8.3-8.2-7.4-1.4.3-7.1 5.1-12.6 10.6l-10.1 9.9-3.1-3.2c-5.2-5.5-17-21.6-22.3-30.4-15.1-24.8-26.4-58.3-28.4-84-.4-4.3-.9-9.4-1.2-11.2l-.5-3.2h12.9c13.6 0 18.6-1 20.2-4 1.6-3 1.2-6.8-1-9-1.8-1.8-3.3-2-16.4-2-8 0-14.7-.3-14.9-.8-.8-1.3 1.2-20.4 3.4-31.7 6.6-34.4 25.2-72.2 47.3-96.3l4-4.3 10.2 10.2c8.6 8.6 10.8 10.2 13.4 10.2 4.1 0 7.3-3.2 7.3-7.3 0-2.6-1.6-4.8-10.2-13.4l-10.3-10.3 6.4-5.5c3.5-3 9-7.4 12.3-9.8 9.4-6.9 11.5-9.1 11.5-12.2 0-2.7-3-6.8-4.9-6.8-.5 0-1.6-.2-2.3-.5-.8-.3-4.1 1.2-7.3 3.3z"></path>
    <path d="M304.5 193.9c-33.3 33.2-39.3 38.8-41 38.1-2.7-1.2-11.8-1.2-14.8-.1-2.2.9-4.1-.8-23.8-20.5-19.9-20-21.6-21.4-25-21.4-4.4 0-7.2 2.8-7.2 7.1 0 2.6 2.9 6 21.5 24.7 18.3 18.4 21.5 22 20.8 23.7-1.6 3.8-1.1 13.4.9 17.3 8.7 16.9 31.8 16.6 40.5-.5 1.8-3.5 2.1-12.7.7-16.6-.9-2.2 2-5.3 38-41.3 35.3-35.3 38.9-39.2 38.9-42.1 0-4.3-3-7.3-7.2-7.3-2.9 0-7.1 3.8-42.3 38.9zm-43.7 53.7c2.9 2 3.1 8.3.2 10.9-4.8 4.4-12 1-12-5.6 0-4.3 2.7-6.9 7-6.9 1.4 0 3.6.7 4.8 1.6zM224 330.2c-3.7 4-2.1 9.7 3.4 11.8 1.6.6 13.1 1 28.6 1 15.5 0 27-.4 28.6-1 5.5-2.1 7.1-7.8 3.4-11.8-2-2.2-2.5-2.2-32-2.2s-30 0-32 2.2z"></path>
  </symbol>
  <symbol version="1.0" xmlns="http://www.w3.org/2000/svg" viewBox="0 0 512 512" id="computer">
    <path d="M20.3 26.8C10.3 30.3 3.2 38.3 1 48.4.2 52 0 98.1.2 207l.3 153.5 2.8 5.7c3.2 6.4 8 11.1 14.6 14.2l4.6 2.1h467l4.6-2.1c6.6-3.1 11.4-7.8 14.6-14.2l2.8-5.7v-313l-2.8-5.7c-3.2-6.4-8-11.1-14.6-14.2l-4.6-2.1-232-.2c-220.7-.2-232.3-.2-237.2 1.5zM177 435v22h-42c-40.2 0-42.3.1-46 2-4.5 2.3-8 8-8 13 0 4.8 3.3 10.3 7.8 12.8l4 2.2h163.1c161.6 0 163.2 0 167.1-2 4.5-2.3 8-8 8-13s-3.5-10.7-8-13c-3.7-1.9-5.8-2-46-2h-42v-44H177v22z"></path>
  </symbol>
  <symbol version="1.0" xmlns="http://www.w3.org/2000/svg" viewBox="0 0 512 512" id="growth">
    <path d="M391 15v15h69.5L418 72.6c-23.4 23.4-55.9 55.6-72.3 71.6l-29.8 29.2-59.9-59.9-59.9-59.9-82.3 81.9c-45.3 45-88.4 87.8-95.8 95.2L4.5 244l10.8 10.7L26 265.5 92.8 199c36.7-36.6 74.9-74.6 85-84.5l18.2-18 59.9 59.9 60 60 82.8-82.4 82.8-82.3.3 34.1.2 34.2h30V0H391v15z"></path>
    <path d="M391 331v151h-30V300h-90v182h-30V240h-90v242h-30V330H30v152H0v30h512v-30h-30V180h-91v151z"></path>
  </symbol>
  <symbol version="1.0" xmlns="http://www.w3.org/2000/svg" viewBox="0 0 512 512" id="menu">
    <path d="M36.6 65.5C11 72-4.9 97.8 1.5 122.5c2.4 8.9 7.2 17 13.7 23.1 9.6 8.8 18.7 12.4 31.5 12.5 9.6 0 14.7-1.2 22.7-5.4 24.5-13 32.1-44.4 16.3-67.9C75.3 69.3 54.4 61 36.6 65.5zm129.9-.3c-11.4 2.2-24.1 10.8-30.3 20.5-5.5 8.6-7.4 16.4-7 27.8.3 9.1.7 10.7 4 17.8 7.3 15.2 20.6 24.7 37.8 26.7 5.6.7 59.1 1 155.5.8l147-.3 5.9-2.3c8.8-3.3 13.5-6.4 19.3-12.4 5.8-6.2 9.6-13.2 11.8-21.5 6.5-24.8-9.8-50.7-35.6-56.8-5.6-1.3-25.7-1.5-154.9-1.4-89.4.1-150.5.5-153.5 1.1zM35.3 210.5c-8.4 2.3-15.3 6.3-21.3 12.4-18.6 18.9-18.7 47.4 0 66.1 15 15 36.2 18.2 55.3 8.3 11.3-6 20.8-18.2 23.7-30.6 1.2-5.5 1.2-16-.1-21.6-2.8-12.3-13.7-25.9-24.9-31.3-10.2-4.8-22.4-6-32.7-3.3zm128.5 0c-11.1 3-23 11.9-28.5 21.2-8.4 14.4-8.4 34.2 0 48.6 3.4 5.7 13.2 14.8 19.1 17.7 10.8 5.2 4 5 165.6 5 164.7 0 156.1.3 167.4-5.8 7.4-3.9 15.7-12.6 19.5-20.3 13.2-26.9-1.5-58.8-30.6-66.4-5-1.3-25.9-1.5-156.8-1.4-120 .1-152 .3-155.7 1.4zM41 354.1C22.8 356 6.5 370.6 1.5 389.5c-6.8 26.1 11.2 52.9 38.6 57.5C68 451.7 94 429.3 94 400.5c0-28.4-23.9-49.3-53-46.4zm128.1 0c-15.1 1.9-29 12.3-35.9 26.6-3.6 7.6-3.7 8.1-3.7 19.3 0 9.6.4 12.5 2.3 17.7 4.6 11.9 16.4 23.2 29.2 27.8 5.4 2 8.9 2 155 2.3 108.1.2 151.4 0 156.3-.9 26.9-4.5 44.9-31.5 38.2-57.4-5-19-20.7-33-39.8-35.5-8.9-1.2-292.6-1.1-301.6.1z"></path>
  </symbol>
  <symbol version="1.0" xmlns="http://www.w3.org/2000/svg" viewBox="0 0 512 512" id="quotes">
    <path d="M107.5 35.7c-1.1.2-5.6 1.1-10 1.9C39.5 48.7-3.3 103.9.3 162.9c3.4 56.3 42.9 101.9 97.9 113.2 17.5 3.5 43.7 2.4 57.7-2.6 2.4-.8 4.6-1.3 4.8-1.1.6.5-2.1 14.6-4.8 24.9-11.6 45.8-28.7 86.8-58.4 139.6-16.2 28.9-19.5 35.2-19.5 38 0 4.6 5.8 1.5 31.5-16.7 20.8-14.8 27.9-20.5 39.9-32.1 27-26.3 47.6-57.9 63.5-97.8 19.9-49.9 30.3-104.9 30.4-161.3.1-21.6-.2-25.7-2.1-34.6-12.4-57.5-62.2-97.9-120.1-97.3-6.4.1-12.5.3-13.6.6zm268-.1c-1.1.3-5.6 1.2-10 2-23.2 4.5-44 15.8-61.5 33.3-23.3 23.4-35.2 51.8-35.3 84.6-.1 16.2 1.1 24.7 5.4 38.3 15.9 49.9 62.3 84.1 114.4 84.4 13.1 0 23.8-1.3 34-4.2 7.8-2.2 7.6-3.4 3.6 14.5-10.3 46-29.3 93-58.6 145-25.7 45.6-26.7 48.9-11 39.2 9.9-6.1 38.6-26.8 47.5-34.3 9.8-8.1 27-25.8 35-35.9 28.4-35.8 50.4-85.8 62.4-141.5 8.4-39 12.6-90.7 9.6-117.5-6-52.5-43.9-94.3-96-106-7.3-1.6-35.1-3-39.5-1.9z"></path>
  </symbol>
  <symbol version="1.0" xmlns="http://www.w3.org/2000/svg" viewBox="0 0 512 512" id="snap">
    <path d="M309.3 1.3c-1.1.7-4.6 4-7.7 7.5-6.7 7.5-7.2 10.7-2.7 15.3 5.1 5.1 10 3.4 18-6.2 3.8-4.5 5.1-6.9 5.1-9.2-.1-6.7-6.9-10.7-12.7-7.4zM136 38c-1.1 1.1-2.2 3-2.5 4.2-.3 1.3-.4 17.8-.3 36.8l.3 34.5 17.2-16 17.2-16-.2-13.5c-.2-11-.6-14.2-2.1-17.4-2.6-5.2-7.9-10.4-13-12.7-5.6-2.6-14-2.5-16.6.1zm201.5-1.5c-.5.2-3.7 1.1-6.9 2.1-10.5 2.9-13.7 9.4-7.7 15.5 3.5 3.4 5.2 3.5 14.1.9 8.4-2.5 10.9-4.5 11.6-9.1.5-2.8.1-4.1-1.7-6.2-2.2-2.5-7.1-4.2-9.4-3.2zM231.3 47.8c-3.1.5-98.6 90.1-114.4 107.3-9.2 10-13.2 15.1-14 18-1 3.1-1 10.1-.1 31.2.7 15 1.2 28.3 1.2 29.7.1 3.8 1.3 1.2 6.9-14.8 6.3-17.8 8.9-22.8 14.8-28.9 6.6-6.7 13.7-10.6 23.6-12.7 2.3-.5 2.7-1.2 2.7-3.9 0-1.8 1-4.7 2.3-6.4 1.2-1.8 12.1-12 24.2-22.9 12.1-10.8 31.4-28.7 42.9-39.7C244.7 82.3 247 79 246.9 69c0-12.5-7.4-22.5-15.6-21.2z"></path>
    <path d="M261.7 47.7c-1.3.3-1.6 1-1.1 2.1 5.6 13.3 5.5 25.3-.3 38.2-2 4.5-6.3 9.3-24.4 27L214 136.5l-1.1 11.5c-.7 6.8-.9 15.1-.5 20.2l.8 8.8 12.6.1c9.5 0 13.8.4 17 1.7 5.3 2.1 52.3 35.3 55.7 39.4 6.1 7.2 7.3 17.9 3.1 26.2l-2.4 4.7 6.3 4.4c11.9 8.6 15.5 14.3 15.5 25 0 6.5-2.5 11.7-8.9 18.7-8.6 9.4-19 14-31.5 14-12.4-.1-16.9-1.8-34.2-13.2l-10.6-7h-16.3c-20.9 0-19.9-.7-26.1 18.3-3.5 11-4.7 16.2-5.1 23.3-.7 11.4.8 15.2 7.8 19.7 7.5 4.9 8.7 11.9 2.7 16.1-3.3 2.3-6.6 2-12.4-1.4-16.4-9.3-20.2-27.6-11.9-56.3 6.4-22.3 11.1-30.3 20.3-34.8 4.2-2.1 6.5-2.4 21.4-2.7 22.3-.5 24.5 0 39.3 9.8 12.8 8.5 18.5 11 24.6 11 6.3 0 14.3-3.6 18.7-8.4 4.9-5.3 5.8-8 3.9-11-2.2-3.4-43.5-32.7-49-34.8-4.3-1.6-8.4-1.8-43.1-1.8-41.5 0-44.4.3-51.2 5.5-1.9 1.5-4.5 4.3-5.9 6.3-3.8 6-41.5 114.4-41.5 119.4.1 9.3-1.6 8 75 60.5 38.8 26.5 72.8 50 75.6 52.2 6 4.5 10 11.7 11 19.9.5 4.1 1.3 5.8 3.6 7.7l3 2.5h65.9c56 0 66.4-.2 68.8-1.5 5.7-2.9 5.5-5.3-2.3-34.3-3.5-13-7.1-27.8-8-32.7-2.3-13-3.9-36.6-3.1-47 1-14.6.8-39.4-.4-48-7.2-49.9-34.2-97.6-71.1-126-33.9-26-56.3-54.1-61.7-77.3-4-17.8-1.5-34 8.7-55.7 6.3-13.3 9-20.8 9-24.8 0-4.5-4.4-11.3-9.3-14.1-4.2-2.4-11.6-3.9-15-2.9zM305 343.3c6.3 7.5 15.8 15.8 22.5 19.7 6.5 3.7 16.8 7 21.8 7 9 0 14.1 5.7 11.3 12.5-2 4.8-4.7 5.9-12.5 5.1-13.3-1.4-25.2-5.9-36.5-14-8.2-5.9-21.9-19.8-24.8-25.2-2.3-4.3-2.3-4.4-.4-7.9 2.2-4 6.5-5.7 10.7-4.3 1.5.5 5 3.7 7.9 7.1zm-55.3 30.8c4.3 1.7 12.8 5.6 18.8 8.7 35.9 18.4 56.1 40.6 57.3 63.2.4 6.9.2 7.7-2.1 9.8-4.4 4.1-13.1 2.3-14.1-3.1-.3-1.2-1-5.1-1.7-8.5-2.9-15.3-19.7-31.5-47.2-45.7-5.6-2.9-13.9-6.7-18.5-8.5-9.1-3.6-11.6-6-11.4-11.3.1-4 4.1-7.7 8.2-7.7 1.6 0 6.4 1.4 10.7 3.1zM318.4 79c-5.4 2.2-7 9.5-3 13.5 2.3 2.3 14.2 6.5 18.5 6.5 3.4 0 8.1-5.2 8.1-9 0-4.2-3.5-7.4-10.3-9.4-8-2.3-10.9-2.7-13.3-1.6z"></path>
    <path d="M181.8 165.2c-6.2 5.6-11.4 10.5-11.6 11-.2.4 5.3.8 12.2.8h12.5l-.2-11c-.1-6.1-.5-11-.9-11s-5.8 4.6-12 10.2zm-31 30.2c-6.2 1.7-12.2 5.7-15.2 10.4-2.2 3.2-39.4 105.8-41.8 115.3-1.3 5 .5 11.2 4.7 15.7 2.6 2.8 3.5 3.3 3.9 2.2.3-.8 7.8-21.9 16.6-46.9 9.2-26.2 17.3-47.7 19.2-50.9 6.5-10.8 17.9-18.2 31.5-20.2 4.7-.8 20.4-1 45-.8 32 .4 38.6.7 42.8 2.1 5.8 2 12.5 5.8 21.3 12.2l6.2 4.6 1-2.5c.6-1.6.6-3.5 0-5-.9-2.4-45.2-34.6-50.4-36.6-4.1-1.5-78.8-1.2-84.8.4z"></path>
  </symbol>
</svg>